<?xml version="1.0" encoding="UTF-8" standalone="no" ?>
<!DOCTYPE svg PUBLIC "-//W3C//DTD SVG 1.1//EN" "http://www.w3.org/Graphics/SVG/1.1/DTD/svg11.dtd">
<svg xmlns="http://www.w3.org/2000/svg" xmlns:xlink="http://www.w3.org/1999/xlink" version="1.1" width="500" height="500" viewBox="0 0 500 500" xml:space="preserve">
<desc>Created with Fabric.js 5.3.0</desc>
<defs>
</defs>
<g transform="matrix(0.8387752552 0 0 0.8387752552 65.7798790669 214.1959880671)" id="euVCTLrBsgg_1h5AJD1H2"  >
<path style="stroke: none; stroke-width: 1; stroke-dasharray: none; stroke-linecap: butt; stroke-dashoffset: 0; stroke-linejoin: miter; stroke-miterlimit: 4; fill: rgb(0,0,0); fill-rule: nonzero; opacity: 1;" vector-effect="non-scaling-stroke"  transform=" translate(-122.5, -245)" d="M 113.75 236.25 L 131.25 236.25 L 131.25 253.75 L 113.75 253.75 z" stroke-linecap="round" />
</g>
<g transform="matrix(0.8387752552 0 0 0.8387752552 95.1370129989 214.1959880671)" id="QUmvAZnr_93mPMIjOOEEz"  >
<path style="stroke: none; stroke-width: 1; stroke-dasharray: none; stroke-linecap: butt; stroke-dashoffset: 0; stroke-linejoin: miter; stroke-miterlimit: 4; fill: rgb(0,0,0); fill-rule: nonzero; opacity: 1;" vector-effect="non-scaling-stroke"  transform=" translate(-157.5, -245)" d="M 148.75 236.25 L 166.25 236.25 L 166.25 253.75 L 148.75 253.75 z" stroke-linecap="round" />
</g>
<g transform="matrix(0.8387752552 0 0 0.8387752552 124.4941469309 214.1959880671)" id="hGaRwbB2JyBkYIZ-IPTL8"  >
<path style="stroke: none; stroke-width: 1; stroke-dasharray: none; stroke-linecap: butt; stroke-dashoffset: 0; stroke-linejoin: miter; stroke-miterlimit: 4; fill: rgb(0,0,0); fill-rule: nonzero; opacity: 1;" vector-effect="non-scaling-stroke"  transform=" translate(-192.5, -245)" d="M 183.75 236.25 L 201.25 236.25 L 201.25 253.75 L 183.75 253.75 z" stroke-linecap="round" />
</g>
<g transform="matrix(0.8387752552 0 0 0.8387752552 421.3268541369 99.4788772291)" id="1G6jltQof_yTYRzYXj47k"  >
<path style="stroke: none; stroke-width: 1; stroke-dasharray: none; stroke-linecap: butt; stroke-dashoffset: 0; stroke-linejoin: miter; stroke-miterlimit: 4; fill: rgb(0,0,0); fill-rule: nonzero; opacity: 1;" vector-effect="non-scaling-stroke"  transform=" translate(-546.38825, -108.2326)" d="M 564.33 151.09 L 581.201 146.4181 C 571.908 112.87910000000001 550.498 84.0901 520.931 65.3751 L 511.57550000000003 80.1521 C 537.4585000000001 96.5501 556.2005 121.74210000000001 564.3295 151.0901 z" stroke-linecap="round" />
</g>
<g transform="matrix(0.8387752552 0 0 0.8387752552 374.5280597932 59.1401621459)" id="bS0q2K1SsrmPtz5C8CVQ1"  >
<path style="stroke: none; stroke-width: 1; stroke-dasharray: none; stroke-linecap: butt; stroke-dashoffset: 0; stroke-linejoin: miter; stroke-miterlimit: 4; fill: rgb(0,0,0); fill-rule: nonzero; opacity: 1;" vector-effect="non-scaling-stroke"  transform=" translate(-490.59405, -60.1402)" d="M 502.27 55.441 C 496.23089999999996 52.8004 489.95 50.5582 483.59 48.8004 L 478.9181 65.6714 C 484.4728 67.21050000000001 489.96909999999997 69.1636 495.2381 71.48 z" stroke-linecap="round" />
</g>
<g transform="matrix(0.8387752552 0 0 0.8387752552 256.6032626855 243.5510250609)" id="lQ6dFxdjUkbD04evCUPla"  >
<path style="stroke: none; stroke-width: 1; stroke-dasharray: none; stroke-linecap: butt; stroke-dashoffset: 0; stroke-linejoin: miter; stroke-miterlimit: 4; fill: rgb(0,0,0); fill-rule: nonzero; opacity: 1;" vector-effect="non-scaling-stroke"  transform=" translate(-350.0024, -279.9975)" d="M 621.25 192.5 L 621.25 183.75 C 621.25 87.254 542.746 8.75 446.25 8.75 L 437.5 8.75 L 437.5 44.195 C 364.387 48.7458 306.25 109.507 306.25 183.745 C 306.25 189.6864 306.73828 195.495 307.4648 201.245 L 78.75480000000002 201.245 L 78.75480000000002 551.245 L 551.2548 551.245 L 551.2548 276.035 C 571.1528000000001 253.42600000000002 583.8208000000001 224.41800000000003 585.8098 192.50000000000003 z M 455 26.47999999999999 C 534.895 30.88229999999999 599.11 95.10099999999998 603.52 175 L 455 175 z M 437.5 305.79999999999995 C 410.305 303.86639999999994 385.578 293.06999999999994 366.152 276.21799999999996 L 437.5 204.86599999999996 z M 437.5 162.61999999999995 L 366.152 91.27199999999995 C 385.578 74.41999999999994 410.312 63.62399999999995 437.5 61.68999999999995 z M 353.781 103.64299999999994 L 433.879 183.74099999999993 L 353.781 263.83899999999994 C 335.125 242.33899999999994 323.75 214.37399999999994 323.75 183.74099999999993 C 323.75 153.10799999999992 335.125 125.14299999999993 353.781 103.64299999999993 z M 310.85900000000004 218.74299999999994 C 315.89020000000005 238.18399999999994 324.91 256.0279999999999 337.136 271.24299999999994 L 96.24600000000004 271.24299999999994 L 96.24600000000004 218.74299999999994 z M 96.24900000000002 533.7429999999999 L 96.24900000000002 288.74299999999994 L 353.959 288.74299999999994 C 378.627 310.44999999999993 410.877 323.74299999999994 446.244 323.74299999999994 C 479.346 323.74299999999994 509.752 312.13399999999996 533.744 292.85599999999994 L 533.744 533.7459999999999 z M 454.999 305.79299999999995 L 454.999 192.49299999999994 L 568.299 192.49299999999994 C 563.9943 253.05199999999994 515.553 301.49299999999994 454.99899999999997 305.79299999999995 z" stroke-linecap="round" />
</g>
<g transform="matrix(0.8387752552 0 0 0.8387752552 322.6548009719 419.6959255911)" id="eUWR-vSTvs8F7IYhmc06p"  >
<path style="stroke: none; stroke-width: 1; stroke-dasharray: none; stroke-linecap: butt; stroke-dashoffset: 0; stroke-linejoin: miter; stroke-miterlimit: 4; fill: rgb(0,0,0); fill-rule: nonzero; opacity: 1;" vector-effect="non-scaling-stroke"  transform=" translate(-428.75, -490)" d="M 341.25 516.25 L 516.25 516.25 L 516.25 463.75 L 341.25 463.75 z M 411.25 498.75 L 411.25 481.25 L 446.25 481.25 L 446.25 498.75 z M 498.75 498.75 L 463.75 498.75 L 463.75 481.25 L 498.75 481.25 z M 358.75 481.25 L 393.75 481.25 L 393.75 498.75 L 358.75 498.75 z" stroke-linecap="round" />
</g>
<g transform="matrix(0.8387752552 0 0 0.8387752552 322.6548009719 375.6602246931)" id="ibkZf6-M3i2-GkWJbGs9B"  >
<path style="stroke: none; stroke-width: 1; stroke-dasharray: none; stroke-linecap: butt; stroke-dashoffset: 0; stroke-linejoin: miter; stroke-miterlimit: 4; fill: rgb(0,0,0); fill-rule: nonzero; opacity: 1;" vector-effect="non-scaling-stroke"  transform=" translate(-428.75, -437.5)" d="M 341.25 428.75 L 516.25 428.75 L 516.25 446.25 L 341.25 446.25 z" stroke-linecap="round" />
</g>
<g transform="matrix(0.8387752552 0 0 0.8387752552 322.6548009719 346.3030907611)" id="a0luJ-RxhtVq8IPCdeQq8"  >
<path style="stroke: none; stroke-width: 1; stroke-dasharray: none; stroke-linecap: butt; stroke-dashoffset: 0; stroke-linejoin: miter; stroke-miterlimit: 4; fill: rgb(0,0,0); fill-rule: nonzero; opacity: 1;" vector-effect="non-scaling-stroke"  transform=" translate(-428.75, -402.5)" d="M 341.25 393.75 L 516.25 393.75 L 516.25 411.25 L 341.25 411.25 z" stroke-linecap="round" />
</g>
<g transform="matrix(0.8387752552 0 0 0.8387752552 322.6548009719 316.9459568291)" id="8cCBMDsYTK8w3hYBkB6Ij"  >
<path style="stroke: none; stroke-width: 1; stroke-dasharray: none; stroke-linecap: butt; stroke-dashoffset: 0; stroke-linejoin: miter; stroke-miterlimit: 4; fill: rgb(0,0,0); fill-rule: nonzero; opacity: 1;" vector-effect="non-scaling-stroke"  transform=" translate(-428.75, -367.5)" d="M 341.25 358.75 L 516.25 358.75 L 516.25 376.25 L 341.25 376.25 z" stroke-linecap="round" />
</g>
<g transform="matrix(0.8387752552 0 0 0.8387752552 139.1732968457 309.6069669174)" id="CR95RtqqgzUJ_oxyasAg5"  >
<path style="stroke: none; stroke-width: 1; stroke-dasharray: none; stroke-linecap: butt; stroke-dashoffset: 0; stroke-linejoin: miter; stroke-miterlimit: 4; fill: rgb(0,0,0); fill-rule: nonzero; opacity: 1;" vector-effect="non-scaling-stroke"  transform=" translate(-210.000695, -358.75035)" d="M 280 341.25 C 272.9375 341.25 266.551 344.0859 261.836 348.625 L 235.93800000000002 335.676 C 236.05909000000003 334.6252 236.25050000000002 333.58619999999996 236.25050000000002 332.5002 C 236.25050000000002 318.0272 224.47350000000003 306.2502 210.00050000000002 306.2502 C 195.5275 306.2502 183.75050000000002 318.0272 183.75050000000002 332.5002 C 183.75050000000002 335.2229 184.28566 337.801 185.0552 340.2697 L 154.52820000000003 363.1607 C 150.36800000000002 360.38730000000004 145.372 358.75050000000005 140.00120000000004 358.75050000000005 C 125.52820000000004 358.75050000000005 113.75120000000004 370.52750000000003 113.75120000000004 385.00050000000005 C 113.75120000000004 399.47350000000006 125.52820000000004 411.25050000000005 140.00120000000004 411.25050000000005 C 154.47420000000005 411.25050000000005 166.25120000000004 399.47350000000006 166.25120000000004 385.00050000000005 C 166.25120000000004 382.27780000000007 165.71604000000005 379.69970000000006 164.94650000000004 377.23100000000005 L 195.47350000000006 354.34000000000003 C 199.63370000000006 357.1134 204.62970000000007 358.7502 210.00050000000005 358.7502 C 217.06300000000005 358.7502 223.44950000000006 355.9143 228.17250000000004 351.3635 L 254.07050000000004 364.3125 C 253.94159000000005 365.375 253.75019000000003 366.4063 253.75019000000003 367.5 C 253.75019000000003 381.973 265.52719 393.75 280.00019000000003 393.75 C 294.47319000000005 393.75 306.25019000000003 381.973 306.25019000000003 367.5 C 306.25019000000003 353.027 294.47319000000005 341.25 280.00019000000003 341.25 z M 140 393.75 C 135.1797 393.75 131.25 389.8203 131.25 385 C 131.25 380.1797 135.1797 376.25 140 376.25 C 144.8203 376.25 148.75 380.1797 148.75 385 C 148.75 389.8203 144.8203 393.75 140 393.75 z M 210 341.25 C 205.1797 341.25 201.25 337.3203 201.25 332.5 C 201.25 327.6797 205.1797 323.75 210 323.75 C 214.8203 323.75 218.75 327.6797 218.75 332.5 C 218.75 337.3203 214.8203 341.25 210 341.25 z M 280 376.25 C 275.1797 376.25 271.25 372.3203 271.25 367.5 C 271.25 362.6797 275.1797 358.75 280 358.75 C 284.8203 358.75 288.75 362.6797 288.75 367.5 C 288.75 372.3203 284.8203 376.25 280 376.25 z" stroke-linecap="round" />
</g>
<g transform="matrix(0.8387752552 0 0 0.8387752552 80.4584460329 405.0173586251)" id="Igm5QHfAV5meujBlvbJwX"  >
<path style="stroke: none; stroke-width: 1; stroke-dasharray: none; stroke-linecap: butt; stroke-dashoffset: 0; stroke-linejoin: miter; stroke-miterlimit: 4; fill: rgb(0,0,0); fill-rule: nonzero; opacity: 1;" vector-effect="non-scaling-stroke"  transform=" translate(-140, -472.5)" d="M 113.75 516.25 L 166.25 516.25 L 166.25 428.75 L 113.75 428.75 z M 131.25 446.25 L 148.75 446.25 L 148.75 498.75 L 131.25 498.75 z" stroke-linecap="round" />
</g>
<g transform="matrix(0.8387752552 0 0 0.8387752552 139.1727138969 382.9995081761)" id="kK62XwTS50wzxJiYbiFDU"  >
<path style="stroke: none; stroke-width: 1; stroke-dasharray: none; stroke-linecap: butt; stroke-dashoffset: 0; stroke-linejoin: miter; stroke-miterlimit: 4; fill: rgb(0,0,0); fill-rule: nonzero; opacity: 1;" vector-effect="non-scaling-stroke"  transform=" translate(-210, -446.25)" d="M 183.75 516.25 L 236.25 516.25 L 236.25 376.25 L 183.75 376.25 z M 201.25 393.75 L 218.75 393.75 L 218.75 498.75 L 201.25 498.75 z" stroke-linecap="round" />
</g>
<g transform="matrix(0.8387752552 0 0 0.8387752552 197.8869817609 397.6780751421)" id="A1q_zeuH-W0ZuddVmJ6l8"  >
<path style="stroke: none; stroke-width: 1; stroke-dasharray: none; stroke-linecap: butt; stroke-dashoffset: 0; stroke-linejoin: miter; stroke-miterlimit: 4; fill: rgb(0,0,0); fill-rule: nonzero; opacity: 1;" vector-effect="non-scaling-stroke"  transform=" translate(-280, -463.75)" d="M 253.75 516.25 L 306.25 516.25 L 306.25 411.25 L 253.75 411.25 z M 271.25 428.75 L 288.75 428.75 L 288.75 498.75 L 271.25 498.75 z" stroke-linecap="round" />
</g>
</svg>